<svg xmlns="http://www.w3.org/2000/svg" viewBox="0 0 24 24">
  <path fill="currentColor" d="M5 4h9a2 2 0 0 1 2 2v1h3a1 1 0 0 1 .78 1.63l-1.72 2.07a1 1 0 0 1-1.56 0L14.78 8.63A1 1 0 0 1 15.56 7h.94V6a.5.5 0 0 0-.5-.5H5A.5.5 0 0 0 4.5 6v12a.5.5 0 0 0 .5.5h6a1 1 0 1 1 0 2H5a2 2 0 0 1-2-2V6a2 2 0 0 1 2-2zm.5 6v2.5H11V10H5.5zm0 4v2.5H11V14H5.5zm0-6V9H11V8H5.5z"/>
  <path fill="currentColor" d="M20 13a1 1 0 0 1 1 1v6.586l.793-.793a1 1 0 1 1 1.414 1.414l-2.5 2.5a1 1 0 0 1-1.414 0l-2.5-2.5a1 1 0 1 1 1.414-1.414L19 20.586V14a1 1 0 0 1 1-1z"/>
</svg>
